<svg version="1.1" width="226" height="442" xmlns="http://www.w3.org/2000/svg" style="overflow: hidden; position: relative; left: -0.5px; top: -0.5px;" viewBox="399 -23 226 442">
<path id="UKC" fill="rgba(220,220,220,0.5)" fill-opacity="0.85" fill-rule="evenodd" stroke="grey" stroke-opacity="1" stroke-width="0.5" stroke-linecap="round" stroke-linejoin="round" d="M540 197L540 199L545 204L546 203L549 208L548 213L550 215L550 222L553 228L550 229L554 229L555 237L559 243L558 245L559 242L567 246L565 248L557 247L555 249L552 248L552 250L546 246L544 248L543 247L543 249L541 250L538 249L539 248L537 249L532 243L532 236L530 234L528 236L526 234L526 227L528 227L528 225L524 222L524 219L527 215L531 214L536 209L534 208L532 203L535 202L535 199L537 199L538 196L539 197zM544 201L543 201z"></path>
<path id="UKD" fill="rgba(220,220,220,0.5)" fill-opacity="0.85" fill-rule="evenodd" stroke="grey" stroke-opacity="1" stroke-width="0.5" stroke-linecap="round" stroke-linejoin="round" d="M527 224L528 227L526 227L526 234L528 236L530 234L532 236L532 243L536 247L536 249L532 251L532 257L530 259L529 258L527 261L529 266L531 265L531 267L538 272L536 280L538 280L542 285L539 289L540 297L536 299L533 303L532 302L531 306L527 308L525 306L520 305L520 303L517 300L519 298L512 292L513 290L516 289L518 294L523 294L523 292L520 293L517 291L514 285L516 281L521 277L517 278L515 276L516 270L517 271L521 267L519 268L519 264L521 264L520 259L516 262L516 260L513 264L511 261L512 258L510 260L509 259L507 253L502 247L508 233L510 233L511 230L514 231L514 229L523 221L526 224zM512 265L510 262L512 265z"></path>
<path id="UKE" fill="rgba(220,220,220,0.5)" fill-opacity="0.85" fill-rule="evenodd" stroke="grey" stroke-opacity="1" stroke-width="0.5" stroke-linecap="round" stroke-linejoin="round" d="M568 246L572 248L579 261L583 262L580 264L581 271L588 281L588 283L587 284L587 281L584 282L578 277L572 279L571 278L569 279L571 278L573 280L578 278L585 285L582 289L580 287L581 284L578 282L577 284L574 285L576 285L574 286L574 288L572 288L571 286L565 288L564 286L562 289L560 289L558 294L549 294L549 292L547 292L536 279L536 276L538 274L536 270L532 268L531 265L530 266L527 262L529 258L530 259L532 257L531 253L533 253L533 250L539 248L538 249L541 250L543 249L543 247L544 248L546 246L552 250L552 248L565 248L568 246z"></path>
<path id="UKF" fill="rgba(220,220,220,0.5)" fill-opacity="0.85" fill-rule="evenodd" stroke="grey" stroke-opacity="1" stroke-width="0.5" stroke-linecap="round" stroke-linejoin="round" d="M579 283L582 288L585 285L589 287L591 291L593 296L593 302L586 308L590 312L590 314L590 312L591 313L586 318L575 319L574 322L576 321L575 322L577 326L573 333L571 333L565 339L566 340L564 342L563 340L561 340L562 341L559 341L560 342L556 344L555 341L557 339L555 337L557 333L556 330L558 330L558 328L555 324L550 321L550 318L546 316L549 313L543 310L543 306L545 306L545 304L543 298L539 296L540 286L542 285L549 292L549 294L558 294L564 286L564 288L571 286L571 288L574 288L574 286L576 286L575 285L578 282z"></path>
<path id="UKG" fill="rgba(220,220,220,0.5)" fill-opacity="0.85" fill-rule="evenodd" stroke="grey" stroke-opacity="1" stroke-width="0.5" stroke-linecap="round" stroke-linejoin="round" d="M543 298L545 303L545 306L543 306L543 310L549 312L546 315L550 318L549 321L555 324L558 328L558 330L556 330L556 336L553 339L551 339L548 345L548 342L546 341L546 339L544 339L543 342L541 341L539 343L536 343L536 341L536 343L533 344L529 342L529 347L523 349L520 346L517 346L514 342L514 335L518 333L516 333L518 330L514 329L511 326L516 324L517 322L514 323L517 316L513 313L513 311L517 307L521 309L524 306L529 307L538 298L542 298z"></path>
<path id="UKH" fill="rgba(220,220,220,0.5)" fill-opacity="0.85" fill-rule="evenodd" stroke="grey" stroke-opacity="1" stroke-width="0.5" stroke-linecap="round" stroke-linejoin="round" d="M607 306L614 308L624 316L625 325L624 330L622 332L621 340L618 341L616 345L612 342L614 345L609 345L614 345L612 348L614 348L613 350L609 351L607 349L603 353L601 353L607 353L605 357L602 356L605 357L603 357L603 361L598 360L599 361L595 361L595 363L591 363L590 362L592 360L590 356L585 357L586 356L583 354L577 357L574 356L574 358L572 352L568 349L573 349L569 347L569 345L572 339L570 337L570 333L572 334L577 327L575 322L576 321L574 322L574 320L577 318L585 318L586 316L589 316L593 312L593 314L593 312L598 306L607 307zM605 359L604 358L607 357L606 358zM607 351L605 351L608 351zM605 307L605 307zM604 358L604 358zM601 306L600 306zM614 347L613 347zM603 353L603 353zM602 353L601 353zM614 348L613 348zM614 347L614 347zM614 347L614 347z"></path>
<path id="UKI" fill="rgba(220,220,220,0.5)" fill-opacity="0.85" fill-rule="evenodd" stroke="grey" stroke-opacity="1" stroke-width="0.5" stroke-linecap="round" stroke-linejoin="round" d="M585 355L585 357L590 356L593 360L589 362L584 361L590 362L588 364L589 365L587 369L585 369L584 367L582 369L579 366L577 368L578 366L573 362L574 356L577 357L583 354z"></path>
<path id="UKJ" fill="rgba(220,220,220,0.5)" fill-opacity="0.85" fill-rule="evenodd" stroke="grey" stroke-opacity="1" stroke-width="0.5" stroke-linecap="round" stroke-linejoin="round" d="M571 336L570 337L572 339L570 341L569 346L573 349L569 349L569 351L574 355L574 362L578 366L578 368L579 366L582 369L584 367L586 369L590 363L601 362L601 364L597 364L599 366L601 366L601 364L602 367L617 365L617 374L612 377L609 377L607 382L596 385L591 389L583 386L565 388L564 387L566 387L564 385L562 385L562 387L560 388L561 385L559 385L559 387L551 382L555 386L549 390L546 389L547 388L545 389L544 384L543 385L544 382L540 380L549 380L546 372L548 372L548 370L550 371L551 366L546 355L548 347L547 344L548 345L551 339L555 337L557 339L555 340L556 344L558 344L560 342L559 341L562 340L564 342L566 340L565 339L570 336zM556 388L561 391L556 395L551 391L549 392L552 389L553 390L556 388zM606 364L607 366L605 367L602 366L601 364L605 364zM563 386L564 387L562 387L563 385zM564 386L564 386zM601 365L600 365zM601 364L600 364zM598 365L598 365zM560 386L560 386z"></path>
<path id="UKK" fill="rgba(220,220,220,0.5)" fill-opacity="0.85" fill-rule="evenodd" stroke="grey" stroke-opacity="1" stroke-width="0.5" stroke-linecap="round" stroke-linejoin="round" d="M545 339L548 342L546 356L551 366L550 371L549 370L548 372L546 372L549 379L547 381L543 379L540 380L544 382L544 388L547 388L545 390L541 391L539 389L540 390L538 390L540 392L541 391L541 393L538 395L536 393L529 394L527 392L530 396L529 397L527 393L520 389L511 391L508 394L507 391L505 396L506 399L504 400L505 403L504 402L501 408L499 407L500 406L498 408L497 405L493 405L491 403L492 402L489 401L489 399L490 404L484 402L482 404L478 404L471 410L471 407L468 412L470 414L466 417L464 412L459 411L459 413L455 413L456 409L462 408L470 400L470 396L476 394L481 387L482 380L487 380L491 376L490 377L488 374L490 372L516 372L516 368L518 366L517 365L523 362L525 358L524 349L528 347L528 344L530 342L533 344L536 343L536 341L536 343L541 341L543 343L542 340L544 339zM442 418L441 419L442 418zM479 374L479 372L479 374zM441 417L441 417zM442 416L442 416zM540 391L540 390zM440 419L440 419zM441 417L440 417zM539 391L539 391zM477 391L477 391z"></path>
<path id="UKL" fill="rgba(220,220,220,0.5)" fill-opacity="0.85" fill-rule="evenodd" stroke="grey" stroke-opacity="1" stroke-width="0.5" stroke-linecap="round" stroke-linejoin="round" d="M510 293L513 296L516 296L518 298L517 300L520 303L520 305L523 306L523 308L521 309L517 307L513 311L513 313L515 313L518 316L516 316L514 323L517 322L517 324L516 323L511 326L515 330L517 330L516 333L518 333L514 335L514 342L517 346L520 345L523 349L525 349L525 357L520 360L517 359L513 363L513 365L508 366L503 364L497 357L495 357L495 359L489 360L487 358L492 355L488 355L485 353L487 353L485 352L486 351L484 351L484 353L481 352L478 354L478 356L474 356L472 358L468 355L472 355L474 351L474 354L467 353L467 355L467 353L465 353L469 350L468 348L464 348L464 346L466 346L470 342L473 343L478 338L483 338L491 331L493 323L495 322L492 323L491 320L494 316L491 313L491 309L493 308L486 310L485 309L482 314L480 312L477 314L477 312L486 304L490 297L497 294L498 295L498 293L503 295L508 292L510 293zM485 290L486 289L488 291L487 292L489 292L489 294L493 294L486 301L484 299L485 298L484 300L480 295L478 295L478 293L481 295L481 291L484 289zM465 352L464 352zM464 348L464 348zM479 356L478 357L479 356zM476 315L476 314zM460 353L460 353zM456 353L456 353zM515 296L515 296zM489 298L489 298z"></path>
<path id="UKM" fill="rgba(220,220,220,0.5)" fill-opacity="0.85" fill-rule="evenodd" stroke="grey" stroke-opacity="1" stroke-width="0.5" stroke-linecap="round" stroke-linejoin="round" d="M508 75L513 77L516 76L514 82L514 84L516 84L515 87L494 107L492 107L494 108L494 110L491 111L486 109L488 111L490 110L490 112L496 112L499 110L494 117L494 115L490 118L489 117L485 121L489 118L493 118L491 122L492 123L491 122L489 125L485 126L491 126L493 123L492 122L498 122L500 119L503 120L508 116L516 119L519 117L528 119L533 117L541 118L544 121L543 122L545 126L539 134L538 142L534 152L528 160L528 164L523 168L516 169L512 173L510 173L517 171L519 169L521 172L520 173L526 177L522 180L517 180L513 185L508 188L500 185L500 187L501 186L501 188L503 187L510 189L513 188L514 190L516 190L521 185L523 185L532 191L536 191L539 196L532 203L535 209L534 211L526 216L524 221L518 226L516 226L515 229L513 230L504 228L504 232L500 234L499 233L495 237L493 237L493 235L492 237L490 237L489 233L488 235L485 233L485 231L485 241L475 233L472 236L475 242L474 243L467 232L467 228L469 227L471 232L471 222L473 222L476 212L480 209L480 207L478 206L479 205L475 203L473 200L475 198L474 191L475 189L481 191L475 186L475 189L474 187L476 180L474 184L473 181L474 188L472 188L472 194L470 193L470 190L468 188L469 191L467 191L467 189L466 195L463 192L463 189L466 184L473 177L462 188L461 187L462 194L464 196L460 202L460 209L458 211L459 214L457 216L453 216L456 201L461 194L457 198L458 197L456 193L458 191L456 193L456 190L458 186L456 188L456 190L460 181L459 180L457 183L459 179L458 178L460 178L458 178L458 174L461 173L459 174L461 169L467 170L469 168L470 165L466 170L460 168L466 165L462 165L465 160L472 159L468 160L466 158L469 154L464 153L468 154L456 168L449 164L448 161L451 162L454 159L459 160L443 159L446 156L452 157L451 156L453 156L452 155L455 152L450 152L452 150L451 151L452 147L459 147L453 145L457 141L459 143L461 142L455 140L457 136L459 135L461 137L461 134L455 134L461 130L459 132L457 132L457 130L453 132L453 129L451 127L453 122L456 125L459 124L456 124L456 122L453 119L453 117L456 118L456 116L453 115L453 110L455 110L457 114L457 108L461 111L462 108L466 111L462 107L466 108L469 112L467 106L464 105L461 101L462 100L464 102L464 98L466 98L464 98L465 97L463 96L463 93L471 93L473 95L473 93L469 93L467 89L469 87L470 88L469 85L471 85L469 85L469 81L471 77L475 79L475 82L476 79L479 81L477 85L481 79L483 80L485 82L483 85L486 81L492 81L494 78L494 80L499 80L505 77L505 79L508 79L508 76zM442 82L445 86L443 88L445 90L440 94L443 95L445 93L445 95L443 97L442 95L440 95L440 99L437 98L438 99L434 101L439 100L440 103L435 104L438 104L438 106L436 106L436 108L435 106L435 108L432 106L434 102L431 105L433 108L430 109L432 112L431 111L430 113L429 111L429 113L426 116L423 112L424 111L424 113L427 110L427 108L430 108L428 106L427 107L423 105L428 102L425 103L425 101L423 101L423 96L424 97L424 95L427 94L429 99L429 96L432 97L430 91L436 89L442 82zM440 117L442 117L445 122L445 134L447 134L447 136L448 135L451 137L454 135L456 137L454 140L453 139L449 146L448 143L452 139L449 140L448 138L447 141L445 139L442 140L442 138L441 139L441 137L438 136L439 133L441 134L436 129L435 133L431 129L432 125L435 129L434 126L436 126L434 122L441 128L439 123L440 117zM555 -13L554 -2L556 -4L555 -6L557 -7L557 -2L558 -3L559 -1L561 -5L559 -2L561 -2L561 0L558 0L560 4L557 7L558 6L557 8L559 7L559 9L557 11L558 17L556 17L556 23L553 20L555 18L554 17L556 12L556 4L554 7L553 4L554 7L553 6L552 9L550 5L550 7L546 5L547 2L549 3L551 1L551 3L553 1L554 3L555 -1L556 0L552 -4L552 -6L548 -6L550 -10L550 -8L553 -8L551 -8L553 -12L555 -12L554 -13zM445 162L446 161L450 167L454 168L456 172L455 171L452 175L452 173L450 175L442 177L440 175L446 174L448 172L444 172L449 168L448 167L446 169L443 166L441 166L441 164L444 164L443 163L445 162zM445 191L448 201L442 205L441 199L443 197L441 197L438 201L437 196L441 192L441 195L444 191zM510 55L512 54L517 58L514 61L519 60L519 62L520 61L522 65L521 64L523 62L521 66L519 65L520 69L518 70L518 73L516 69L517 70L517 68L516 69L519 68L519 66L517 63L513 65L511 62L510 63L508 61L510 55zM465 199L468 201L468 211L465 210L462 204L465 199zM454 182L456 183L450 195L447 196L446 192L451 189L450 190L449 187L454 182zM418 119L424 119L423 121L421 121L423 123L419 123L423 123L422 125L420 125L420 127L416 123L418 123L413 121L419 117L418 118zM417 130L421 132L419 137L420 140L418 140L420 142L416 140L416 130zM561 -17L563 -16L563 -13L561 -15L562 -12L560 -12L562 -11L562 -9L561 -6L559 -6L558 -13L559 -14L560 -12L559 -15L561 -18zM511 70L513 70L509 70L507 66L508 64L510 64L512 67L513 69L511 70zM470 194L471 199L466 192L467 191L470 194zM565 -23L565 -21L567 -23L568 -22L566 -20L567 -19L565 -19L567 -19L565 -16L566 -15L563 -15L563 -20L565 -23zM439 146L440 144L443 146L443 148L440 149L438 146zM418 126L421 127L420 130L416 127L418 126zM431 165L432 166L427 170L426 167L431 165zM438 161L435 164L433 164L438 160zM449 126L448 133L447 127L448 128L449 126zM415 146L417 146L416 149L413 148L416 145L415 144L416 145zM530 48L524 52L526 49L525 48L528 49L530 47zM444 183L445 184L443 187L442 186L444 183zM517 46L520 49L519 51L520 49L517 49L515 46L518 45zM516 52L518 55L514 53L516 52zM565 -13L567 -12L567 -10L563 -12L565 -13zM524 54L526 54L526 56L527 55L526 58L526 56L524 56L525 55zM446 150L445 152L444 151L446 150zM521 58L521 60L518 59L519 57L521 57zM560 7L561 10L559 10L560 7zM523 51L522 54L522 50L523 51zM450 135L448 134L450 134zM461 165L458 169L461 165zM564 -1L562 1L562 -1L565 -2zM428 93L431 96L428 93zM443 168L445 168L443 168zM552 -2L554 -1L553 0L552 -2zM456 181L454 181L456 180zM455 200L455 202L455 199zM426 108L424 110L425 108zM457 175L457 177L457 175zM538 10L538 9zM457 180L457 177L457 179zM459 171L459 173L458 171zM421 117L422 116L421 117zM473 196L473 198L473 196zM436 144L435 145L436 144zM444 140L443 141L444 140zM422 103L422 104zM530 44L531 43L529 45L530 44zM449 123L449 125L449 123zM413 149L415 150L413 149zM514 68L515 69L514 68zM548 37L547 38L548 37zM519 45L520 44L519 45zM419 143L419 143zM439 175L440 174zM546 0L546 2L546 0zM389 112L390 113L389 112zM432 110L434 111L433 110zM420 114L420 114zM451 155L453 155L451 155zM518 53L518 54zM555 11L554 14L555 11zM411 154L412 155L411 154zM421 126L422 127L421 126zM442 153L443 154L442 153zM442 168L442 168zM555 12L555 14L555 12zM457 179L457 179zM414 152L415 151zM551 1L552 1zM510 63L510 64zM421 130L421 130zM467 88L467 88zM562 -12L562 -11zM562 10L562 9zM462 104L462 104zM416 119L416 119zM556 11L556 10zM455 179L456 180L456 178zM411 156L412 156zM417 145L417 144zM440 176L440 176zM455 191L456 190L455 191zM437 145L437 145zM554 1L553 0L554 1zM468 196L467 196zM432 104L432 105zM567 -3L568 -4L567 -3zM419 119L419 119zM417 146L418 146zM389 112L389 111zM392 110L392 110zM452 55L453 55zM457 178L457 177zM448 125L448 125zM432 165L432 165zM417 130L417 129zM478 84L478 83zM433 148L433 148zM410 125L410 125zM410 117L410 117zM476 81L476 81zM469 87L469 87zM422 126L422 126zM485 57L485 57zM412 92L412 92zM412 92L412 92zM427 115L427 115zM445 57L445 56zM420 123L420 123zM470 88L470 88zM392 110L392 110zM433 148L433 148zM477 85L477 85zM484 84L484 84zM470 87L470 87zM411 92L411 92zM515 229L515 229zM468 160L468 160zM490 110L490 110zM411 92L411 92zM466 184L466 184zM468 160L468 160zM417 119L417 119zM484 84L484 84zM434 183L434 183zM434 183L434 183zM461 195L461 195zM412 92L412 93zM410 124L410 125zM477 85L477 85zM450 189L450 189zM456 124L456 125zM434 183L434 183zM412 93L412 93zM468 160L468 160zM450 189L450 189zM453 56L453 56zM409 118L409 118zM409 118L409 118zM410 124L410 124zM456 124L456 124zM391 110L391 110zM389 112L389 112zM412 92L412 92zM410 124L410 124zM419 137L419 137zM445 138L445 138zM428 98L428 97zM482 60L482 60zM422 119L422 119zM455 159L455 159zM471 93L471 93zM420 132L420 132zM420 128L420 128zM452 56L452 56zM391 113L391 113zM428 98L428 98zM412 92L412 92zM419 137L419 137zM485 57L485 57zM565 -24L565 -24zM437 100L438 100zM412 93L412 93zM439 100L439 100zM409 124L409 124zM420 123L420 123zM420 128L420 128zM461 142L461 142zM562 -17L562 -17zM448 127L448 127zM450 190L450 190zM460 195L460 195zM409 118L409 118zM419 123L420 123zM476 79L476 79zM412 93L412 92zM460 173L460 173zM411 92L411 92zM388 111L388 111zM409 124L409 124zM421 129L421 129zM409 118L410 118zM438 98L438 98zM420 128L420 128zM411 92L411 92zM412 93L412 93zM429 96L429 96zM410 124L410 124zM419 130L419 130zM420 138L420 138zM466 170L466 170zM471 159L471 159zM413 92L413 92zM472 94L472 94zM544 128L544 128zM476 79L476 79zM412 92L412 92zM412 92L412 92zM471 93L471 93zM432 165L432 165zM445 57L445 57zM433 102L433 102zM468 168L468 168zM472 95L472 95zM450 190L450 190zM410 118L410 118zM420 128L420 128zM390 113L390 113zM390 112L390 112zM420 123L420 123zM467 88L467 88zM415 149L415 149zM456 160L456 160zM411 92L411 92zM410 124L410 124zM467 169L467 169zM499 79L500 79zM462 94L462 94zM538 143L538 143zM551 -8L551 -8zM469 82L469 82zM519 44L519 44zM468 168L468 168zM411 92L411 92zM420 132L420 132zM551 3L551 3zM450 190L450 190zM508 60L508 60zM522 118L522 118zM389 112L389 112zM414 120L414 120zM413 92L413 92zM482 79L482 79zM412 93L412 93zM568 -12L568 -12zM392 110L392 110zM567 -3L567 -3zM476 79L476 79zM556 6L556 6zM389 112L389 112zM556 17L556 17zM552 0L552 0zM424 109L424 109zM412 92L412 92zM457 178L457 178zM389 112L389 112zM476 79L476 79zM483 80L483 80zM445 56L445 56zM522 118L522 118zM554 13L554 13zM390 113L390 113zM508 60L509 60zM414 120L414 120zM392 110L392 110zM431 91L431 91zM549 2L549 2zM556 22L556 22zM469 85L469 85zM420 133L420 133zM559 3L559 3zM568 -12L568 -12zM411 92L411 92zM445 56L445 57zM390 113L390 113zM554 13L554 13zM552 -12L552 -12zM424 96L424 96zM556 23L556 23zM411 92L411 92zM538 9L538 9zM504 77L504 77zM445 56L445 56zM483 80L483 80zM543 129L543 129zM445 57L445 57zM444 90L444 90zM411 92L411 92zM553 -12L553 -12zM411 92L411 92zM508 60L508 60zM490 81L490 81zM390 113L390 113zM389 112L389 112zM389 112L389 112zM411 92L411 92zM411 92L411 92zM423 99L423 99zM411 92L411 92zM445 56L445 56zM390 113L390 113zM523 63L523 63zM445 57L445 57zM538 142L538 142zM549 2L549 2zM445 56L445 56zM483 80L483 80zM442 82L442 82zM559 7L559 7zM445 56L445 56zM424 104L424 104zM459 209L459 209zM556 21L556 21zM508 60L508 60zM556 21L556 21zM421 125L421 125zM558 13L558 13zM442 82L442 82zM431 91L431 91zM552 -1L552 -1z"></path>
<path id="UKN" fill="rgba(220,220,220,0.5)" fill-opacity="0.85" fill-rule="evenodd" stroke="grey" stroke-opacity="1" stroke-width="0.5" stroke-linecap="round" stroke-linejoin="round" d="M438 219L445 219L448 222L447 225L449 229L456 236L450 242L459 242L461 248L460 255L456 259L453 258L453 256L451 259L451 263L448 266L442 263L440 263L440 265L435 266L433 264L434 261L430 259L429 254L426 251L424 251L421 255L422 258L419 263L419 261L419 263L413 263L409 259L407 260L403 253L399 250L403 246L406 247L410 243L406 243L405 240L413 238L418 226L425 226L427 220L432 221L438 218zM445 216L444 218L443 216zM459 241L459 241zM459 256L459 256zM459 240L459 240zM460 240L460 240zM434 219L434 219zM460 240L460 240zM434 219L434 219zM459 240L459 240zM447 265L447 265zM459 240L459 240zM434 219L434 219zM439 219L439 219zM434 219L434 219zM434 219L434 219zM442 216L442 216zM434 219L434 219zM434 219L434 219zM434 219L434 219zM434 219L434 219zM453 233L453 233zM434 219L434 219zM434 219L434 219zM434 219L434 219zM434 219L434 219zM434 219L434 219zM442 216L442 216zM434 219L434 219zM451 260L451 260zM458 257L458 257zM434 219L434 219zM456 258L456 258zM434 219L434 219zM442 216L442 216zM451 260L451 260zM455 241L455 241zM434 219L434 219zM457 258L457 258zM459 241L459 241zM434 219L434 219zM451 260L451 260zM434 219L434 219zM451 260L451 260z"></path>
</svg>